<svg height="512pt" viewBox="-31 0 512 512" width="512pt" xmlns="http://www.w3.org/2000/svg"><path d="m450 256c0-31.199219-13.800781-58.800781-35.398438-78 3.296876-8.699219 5.398438-17.699219 5.398438-27 0-46.199219-40.800781-85.300781-93.601562-90.402344-8.398438-30-33.296876-60.597656-101.398438-60.597656s-93 30.597656-101.398438 60.597656c-52.5 4.800782-93.601562 44.203125-93.601562 90.402344 0 9.300781 2.101562 18.300781 5.398438 27-21.597657 19.199219-35.398438 46.800781-35.398438 78 0 30.898438 13.5 58.199219 34.800781 77.398438-2.699219 9-4.800781 18-4.800781 27.601562 0 51 43.800781 93.699219 93.898438 91 8.402343 30 33.902343 60 101.101562 60s92.699219-30 101.101562-60c50.699219 1.800781 93.898438-40 93.898438-91 0-9.601562-2.101562-18.601562-4.800781-27.601562 21.300781-19.199219 34.800781-46.5 34.800781-77.398438zm0 0" fill="#fed2a4"/><path d="m415.199219 333.398438c2.699219 9 4.800781 18 4.800781 27.601562 0 51-43.199219 92.800781-93.898438 91-8.402343 30-33.902343 60-101.101562 60v-512c68.101562 0 93 30.597656 101.398438 60.597656 52.800781 5.101563 93.601562 44.203125 93.601562 90.402344 0 9.300781-2.101562 18.300781-5.398438 27 21.597657 19.199219 35.398438 46.800781 35.398438 78 0 30.898438-13.5 58.199219-34.800781 77.398438zm0 0" fill="#ffbd86"/><path d="m150.660156 433.441406c-1.101562-9.054687-9.945312-14.820312-18.210937-12.789062-3.953125.894531-8.140625 1.347656-12.449219 1.347656-33.089844 0-60-27.910156-60-61 0-3.386719.542969-6.667969 1.089844-9.941406 13.402344 6.222656 28.1875 9.941406 43.910156 9.941406 8.289062 0 15-6.710938 15-15s-6.710938-15-15-15c-41.351562 0-75-33.648438-75-75s33.648438-75 75-75c24.8125 0 45 20.1875 45 45 0 8.289062 6.710938 15 15 15s15-6.710938 15-15c0-15.503906-4.730469-29.917969-12.820312-41.890625 5.632812-5.804687 9.800781-12.988281 11.679687-21.199219 3.457031-15.191406-1.042969-30.820312-12.058594-41.835937-5.859375-5.859375-15.351562-5.859375-21.210937 0s-5.859375 15.351562 0 21.210937c5.289062 5.285156 4.570312 11.511719 4.015625 13.945313-.351563 1.53125-1.464844 4.402343-3.867188 6.960937-11.753906-7.644531-25.707031-12.191406-40.738281-12.191406-15.648438 0-30.371094 3.671875-43.726562 9.839844-.675782-3.242188-1.273438-6.5-1.273438-9.839844 0-33.089844 33.648438-60 75.996094-60 7.484375 0 13.8125-5.507812 14.855468-12.921875 2.566407-18.359375 12.113282-42.984375 59.148438-47.203125v450.230469c-47.667969-4.308594-57.011719-28.710938-59.339844-47.664063zm0 0" fill="#ffbd86"/><path d="m390 361c0 33.089844-26.910156 61-60 61-4.320312 0-8.554688-.4375-12.582031-1.316406-8.539063-1.917969-17.003907 4.039062-18.078125 12.816406-2.328125 18.925781-11.671875 43.300781-59.339844 47.609375v-450.230469c47.035156 4.226563 56.582031 28.917969 59.164062 47.332032 1.039063 7.414062 8.351563 12.789062 15.835938 12.789062 41.351562 0 75 26.910156 75 60 0 3.339844-.597656 6.597656-1.273438 9.839844-13.355468-6.167969-28.078124-9.839844-43.726562-9.839844-16.15625 0-31.039062 5.25-43.296875 13.976562-3.890625-2.820312-5.320313-6.757812-5.761719-8.644531-.585937-2.445312-1.347656-8.714843 3.984375-14.046875 5.859375-5.859375 5.859375-15.351562 0-21.210937s-15.351562-5.859375-21.210937 0c-11.101563 11.101562-15.585938 26.863281-11.980469 42.144531 2.179687 9.214844 7.371094 17.039062 14.785156 23.28125-7.183593 11.503906-11.519531 24.96875-11.519531 39.5 0 8.289062 6.710938 15 15 15s15-6.710938 15-15c0-24.8125 20.1875-45 45-45 41.351562 0 75 33.648438 75 75s-33.648438 75-75 75c-8.289062 0-15 6.710938-15 15s6.710938 15 15 15c15.722656 0 30.507812-3.71875 43.910156-9.941406.546875 3.273437 1.089844 6.554687 1.089844 9.941406zm0 0" fill="#f6a96c"/><path d="m315 391c-24.8125 0-45-20.1875-45-45v-30c0-24.8125 20.1875-45 45-45 8.277344 0 15-6.722656 15-15 0-8.289062 6.710938-15 15-15s15 6.710938 15 15c0 24.8125-20.1875 45-45 45-8.277344 0-15 6.722656-15 15v30c0 8.277344 6.722656 15 15 15 8.289062 0 15 6.710938 15 15s-6.710938 15-15 15zm0 0" fill="#ffbd86"/><path d="m135 391c-8.289062 0-15-6.710938-15-15s6.710938-15 15-15c8.277344 0 15-6.722656 15-15v-30c0-8.277344-6.722656-15-15-15-24.8125 0-45-20.1875-45-45 0-8.289062 6.710938-15 15-15s15 6.710938 15 15c0 8.277344 6.722656 15 15 15 24.8125 0 45 20.1875 45 45v30c0 24.8125-20.1875 45-45 45zm0 0" fill="#fed2a4"/></svg>