<svg height="512pt" viewBox="0 0 512 512" width="512pt" xmlns="http://www.w3.org/2000/svg"><path d="m301 226c0 16.800781-9.300781 32.101562-24 39.898438-3.601562 1.800781-6 6.601562-6 12 0 8.101562-6.597656 15-15 15s-15-6.898438-15-15c0-13.5 5.398438-25.796876 15-33.898438 2.101562-1.800781 4.5-3.601562 6.898438-4.800781 5.101562-2.398438 8.101562-7.5 8.101562-13.199219 0-8.402344-6.597656-15-15-15s-15 6.597656-15 15c0 8.398438-6.597656 15-15 15s-15-6.601562-15-15c0-24.902344 20.097656-45 45-45s45 20.097656 45 45zm0 0" fill="#7c8388"/><path d="m271 316c0 8.398438-6.597656 15-15 15s-15-6.601562-15-15c0-8.402344 6.597656-15 15-15s15 6.597656 15 15zm0 0" fill="#7c8388"/><path d="m25.605469 94.394531 13.179687-13.179687 16.296875 16.292968c-28.03125 35.550782-46.925781 79.652344-52.808593 126.886719-1.097657 8.828125 6.222656 16.605469 15.117187 16.605469h91.472656c7.308594 0 13.164063-5.363281 14.65625-12.519531 10.894531-52.1875 52.773438-94.066407 104.960938-104.960938 7.15625-1.492187 12.519531-7.347656 12.519531-14.65625v-91.472656c0-8.894531-7.777344-16.214844-16.605469-15.117187-47.234375 5.882812-91.335937 24.773437-126.886719 52.808593l-16.292968-16.296875 13.179687-13.179687c9.449219-9.449219 2.753907-25.605469-10.609375-25.605469h-68.785156c-8.285156 0-15 6.714844-15 15v68.785156c0 13.363282 16.15625 20.058594 25.605469 10.609375zm0 0" fill="#ff637b"/><path d="m497 0h-68.785156c-13.363282 0-20.058594 16.15625-10.605469 25.605469l13.179687 13.179687-16.296874 16.296875c-35.550782-28.035156-79.652344-46.925781-126.886719-52.808593-8.828125-1.097657-16.605469 6.222656-16.605469 15.117187v91.472656c0 7.308594 5.363281 13.164063 12.519531 14.65625 52.1875 10.894531 94.066407 52.773438 104.960938 104.960938 1.492187 7.15625 7.347656 12.519531 14.65625 12.519531h91.472656c8.894531 0 16.214844-7.777344 15.117187-16.605469-5.882812-47.234375-24.777343-91.335937-52.8125-126.886719l16.296876-16.292968 13.179687 13.179687c9.453125 9.449219 25.609375 2.757813 25.609375-10.605469v-68.789062c0-8.285156-6.714844-15-15-15zm0 0" fill="#00c8c8"/><path d="m108.863281 271h-91.472656c-8.894531 0-16.214844 7.777344-15.117187 16.605469 5.882812 47.234375 24.777343 91.335937 52.8125 126.886719l-16.296876 16.292968-13.179687-13.179687c-9.453125-9.449219-25.609375-2.753907-25.609375 10.609375v68.785156c0 8.285156 6.714844 15 15 15h68.785156c13.363282 0 20.058594-16.15625 10.605469-25.605469l-13.179687-13.179687 16.296874-16.296875c35.546876 28.035156 79.652344 46.929687 126.882813 52.808593 8.828125 1.097657 16.609375-6.222656 16.609375-15.117187v-91.472656c0-7.308594-5.363281-13.164063-12.519531-14.65625-52.1875-10.890625-94.070313-52.773438-104.960938-104.960938-1.492187-7.15625-7.347656-12.519531-14.65625-12.519531zm0 0" fill="#f4d7af"/><path d="m486.394531 417.605469-13.179687 13.179687-16.296875-16.292968c28.03125-35.550782 46.925781-79.652344 52.808593-126.886719 1.097657-8.824219-6.222656-16.605469-15.117187-16.605469h-91.472656c-7.308594 0-13.164063 5.363281-14.65625 12.519531-10.890625 52.1875-52.773438 94.066407-104.960938 104.960938-7.15625 1.492187-12.519531 7.347656-12.519531 14.65625v91.472656c0 8.894531 7.78125 16.214844 16.609375 15.117187 47.230469-5.882812 91.335937-24.773437 126.882813-52.808593l16.296874 16.296875-13.179687 13.179687c-9.453125 9.449219-2.757813 25.605469 10.605469 25.605469h68.785156c8.285156 0 15-6.71875 15-15v-68.789062c0-13.359376-16.15625-20.054688-25.605469-10.605469zm0 0" fill="#fdbf00"/><g fill="#575f64"><path d="m271 316c0 8.398438-6.597656 15-15 15v-30c8.402344 0 15 6.597656 15 15zm0 0"/><path d="m301 226c0 16.800781-9.300781 32.101562-24 39.898438-3.601562 1.800781-6 6.601562-6 12 0 8.101562-6.597656 15-15 15v-48.898438c2.101562-1.800781 4.5-3.601562 6.898438-4.800781 5.101562-2.398438 8.101562-7.5 8.101562-13.199219 0-8.402344-6.597656-15-15-15v-30c24.902344 0 45 20.097656 45 45zm0 0"/></g></svg>